# xmcd CD database file
#
# Track frame offsets:
#	163
#	29237
#	66686
#	96962
#	129617
#	158837
#	195416
#	219886
#	256189
#	277941
#	298818
#	336674
#
# Disc length: 4786 seconds
#
# Revision: 0
# Processed by: cddbd v1.5.2PL0 Copyright (c) Steve Scherf et al.
# Submitted via: CDex 1.51
#
DISCID=c212b00c
DTITLE=Lawrence University Jazz Ensemble - Radiohead Jazz Project
DYEAR=2011
DGENRE=Jazz
TTITLE0=Packt Like Sardines in a Crushd Tin Box
TTITLE1=Everything in its right place
TTITLE2=15 Step
TTITLE3=Idioteque
TTITLE4=Knives Out
TTITLE5=There, There
TTITLE6=All I Need
TTITLE7=Paranoid Android
TTITLE8=Kid A
TTITLE9=2+2=5
TTITLE10=High and Dry
TTITLE11=Bodysnatchers
EXTD=YEAR: 2011
EXTT0=
EXTT1=
EXTT2=
EXTT3=
EXTT4=
EXTT5=
EXTT6=
EXTT7=
EXTT8=
EXTT9=
EXTT10=
EXTT11=
PLAYORDER=
